<svg xmlns="http://www.w3.org/2000/svg" xmlns:xlink="http://www.w3.org/1999/xlink" width="512" height="512" x="0" y="0" viewBox="0 0 682.667 682.667" style="enable-background:new 0 0 512 512" xml:space="preserve" class=""><g><defs><clipPath id="a" clipPathUnits="userSpaceOnUse"><path d="M0 512h512V0H0Z" fill="#941e3c" opacity="1" data-original="#000000"></path></clipPath></defs><g clip-path="url(#a)" transform="matrix(1.33333 0 0 -1.33333 0 682.667)"><path d="M0 0c5.52 0 10-4.48 10-10S5.52-20 0-20s-10 4.48-10 10S-5.52 0 0 0" style="fill-opacity:1;fill-rule:nonzero;stroke:none" transform="translate(50 225)" fill="#941e3c" data-original="#000000" opacity="1"></path><path d="M0 0c-.03-11.021-8.97-19.94-20-19.94h-60v180h60c11.05 0 20-8.951 20-20z" style="stroke-width:20;stroke-linecap:round;stroke-linejoin:round;stroke-miterlimit:10;stroke-dasharray:none;stroke-opacity:1" transform="translate(90 94.94)" fill="none" stroke="#941e3c" stroke-width="20" stroke-linecap="round" stroke-linejoin="round" stroke-miterlimit="10" stroke-dasharray="none" stroke-opacity="" data-original="#000000" opacity="1"></path><path d="m0 0 122.88 42.239c13.11 4.731 28.64.261 35.26-11.989 8.99-16.631 1.12-34.971-14.15-41.08L-42.86-93.101A117.485 117.485 0 0 0-151.97-86.9l-52.3 31.379c-12.07 7.241-31.76 11.3-45.79 11.811" style="stroke-width:20;stroke-linecap:round;stroke-linejoin:round;stroke-miterlimit:10;stroke-dasharray:none;stroke-opacity:1" transform="translate(340.06 138.65)" fill="none" stroke="#941e3c" stroke-width="20" stroke-linecap="round" stroke-linejoin="round" stroke-miterlimit="10" stroke-dasharray="none" stroke-opacity="" data-original="#000000" opacity="1"></path><path d="M0 0h79.17c10.31 0 20.44-2.65 29.42-7.71l52.84-29.72c3-1.69 6.37-2.57 9.81-2.57H236c16.57 0 30-13.43 30-30 0-11.2-6.13-20.96-15.23-26.11-4.36-2.48-9.4-3.89-14.77-3.89H134.34" style="stroke-width:20;stroke-linecap:round;stroke-linejoin:round;stroke-miterlimit:10;stroke-dasharray:none;stroke-opacity:1" transform="translate(90 235)" fill="none" stroke="#941e3c" stroke-width="20" stroke-linecap="round" stroke-linejoin="round" stroke-miterlimit="10" stroke-dasharray="none" stroke-opacity="" data-original="#000000" opacity="1"></path><path d="M0 0c8.099 27.641 31.131 48.11 61.749 48.11 49.32 0 64.9-56.25 64.9-56.25s15.58 56.25 64.91 56.25c38.42 0 64.9-32.25 64.9-70.449 0-50.551-47.66-84.39-128.61-154.551-48.765 42.266-88.32 71.799-110.766 101.202" style="stroke-width:20;stroke-linecap:round;stroke-linejoin:round;stroke-miterlimit:10;stroke-dasharray:none;stroke-opacity:1" transform="translate(169.951 428.99)" fill="none" stroke="#941e3c" stroke-width="20" stroke-linecap="round" stroke-linejoin="round" stroke-miterlimit="10" stroke-dasharray="none" stroke-opacity="" data-original="#000000" opacity="1"></path><path d="M0 0c5.52 0 10-4.48 10-10S5.52-20 0-20s-10 4.48-10 10S-5.52 0 0 0" style="fill-opacity:1;fill-rule:nonzero;stroke:none" transform="translate(169 399)" fill="#941e3c" data-original="#000000" opacity="1"></path></g></g></svg>