<svg xmlns="http://www.w3.org/2000/svg" xmlns:xlink="http://www.w3.org/1999/xlink" width="512" height="512" x="0" y="0" viewBox="0 0 512 512" style="enable-background:new 0 0 512 512" xml:space="preserve" class=""><g><path d="M175.016 218.763H70.855a27.702 27.702 0 0 0-23.842 13.596L16.14 284.535a60.002 60.002 0 0 0-8.362 30.554v172.789c0 9.18 7.442 16.622 16.622 16.622h463.202c9.18 0 16.622-7.442 16.622-16.622V315.089a59.997 59.997 0 0 0-8.363-30.555l-30.873-52.176a27.703 27.703 0 0 0-23.842-13.596H399M364 218.763h-27.016" style="stroke-width:15;stroke-linecap:round;stroke-linejoin:round;stroke-miterlimit:10;" fill="none" stroke="#941e3c" stroke-width="15" stroke-linecap="round" stroke-linejoin="round" stroke-miterlimit="10" data-original="#000000" opacity="1" class=""></path><path d="M109 306.25H24.399c-9.18 0-16.622 7.442-16.622 16.622v165.006c0 9.18 7.442 16.622 16.622 16.622h463.202c9.18 0 16.622-7.442 16.622-16.622V322.872c0-9.18-7.442-16.622-16.622-16.622H144M315.8 113.925c-15.854-14.238-36.814-22.904-59.8-22.904-20.312 0-39.041 6.768-54.064 18.166M178.667 135.416c-7.753 13.254-12.201 28.676-12.201 45.139 0 31.385 16.162 58.981 40.604 74.967h97.86c24.442-15.986 40.604-43.582 40.604-74.967a89.451 89.451 0 0 0-4.38-27.717" style="stroke-width:15;stroke-linecap:round;stroke-linejoin:round;stroke-miterlimit:10;" fill="none" stroke="#941e3c" stroke-width="15" stroke-linecap="round" stroke-linejoin="round" stroke-miterlimit="10" data-original="#000000" opacity="1" class=""></path><path d="M282.675 160.138c0-8.73-7.077-15.807-15.807-15.807h-21.735c-8.73 0-15.807 7.077-15.807 15.807v4.61c0 8.73 7.077 15.807 15.807 15.807h21.735c8.73 0 15.807 7.077 15.807 15.807v4.61c0 8.73-7.077 15.807-15.807 15.807h-21.735c-8.73 0-15.807-6.095-15.807-14.825M256 129.841v14.49M256 216.78v14.49M117.053 255.522h277.894M386.206 107.787l-53.672 53.672c-4.601 4.601-12.06 4.601-16.661 0h0c-13.147-13.147-13.147-34.464 0-47.611l27.973-27.973a18.825 18.825 0 0 0 5.514-13.313V60.968M493.142 150.45H434.41c-6.12 0-11.081-4.961-11.081-11.081V18.581c0-6.12 4.961-11.081 11.081-11.081h58.731c6.12 0 11.081 4.961 11.081 11.081v120.787c.001 6.121-4.96 11.082-11.08 11.082z" style="stroke-width:15;stroke-linecap:round;stroke-linejoin:round;stroke-miterlimit:10;" fill="none" stroke="#941e3c" stroke-width="15" stroke-linecap="round" stroke-linejoin="round" stroke-miterlimit="10" data-original="#000000" opacity="1" class=""></path><path d="M349.083 144.909h28.812c18.812 0 35.419-9.386 45.434-23.719V22.46h-88.151a74.778 74.778 0 0 0-52.876 21.902l-49.775 49.775M295.686 442.217l27.668-72.646c.565-1.382 2.522-1.384 3.09-.003l27.417 72.649M304.315 424.124h41.056M459.563 368.869H428.8v73.011h30.763M457.295 405.375H428.8M221.646 442.217v-73.546l49.724 72.003c.922 1.332 1.909.679 1.909-.94l-.688-71.201M52.437 369.697v70.268M101.563 405.375c0 19.702-10.935 35.292-28.283 35.595-5.775.101-20.699.157-20.699.157s-.093-25.9-.093-35.831c0-8.156-.052-35.673-.052-35.673h20.251c19.029 0 28.876 16.05 28.876 35.752zM364.426 368.533h40.692M384.69 370.886v71.331" style="stroke-width:15;stroke-linecap:round;stroke-linejoin:round;stroke-miterlimit:10;" fill="none" stroke="#941e3c" stroke-width="15" stroke-linecap="round" stroke-linejoin="round" stroke-miterlimit="10" data-original="#000000" opacity="1" class=""></path><circle cx="161.886" cy="405.375" r="36.842" style="stroke-width:15;stroke-linecap:round;stroke-linejoin:round;stroke-miterlimit:10;" fill="none" stroke="#941e3c" stroke-width="15" stroke-linecap="round" stroke-linejoin="round" stroke-miterlimit="10" data-original="#000000" opacity="1" class=""></circle></g></svg>