<svg xmlns="http://www.w3.org/2000/svg" xmlns:xlink="http://www.w3.org/1999/xlink" width="512" height="512" x="0" y="0" viewBox="0 0 64 64" style="enable-background:new 0 0 512 512" xml:space="preserve" class=""><g><path d="M54 42c0-6.02-2.91-11.6-8-15.41v-3.38c.72-1.72 4.73-2.92 7.14-3.27.43-.06.77-.4.84-.83s-.15-.86-.53-1.05c-7.91-4.01-13.4-1.38-16.44 1.19-1.52-2.95-4.29-4.96-4.43-5.05a.99.99 0 0 0-1.16 0c-.13.1-2.91 2.11-4.43 5.05-3.04-2.57-8.53-5.2-16.44-1.19a.997.997 0 0 0 .3 1.88c2.42.35 6.43 1.55 7.14 3.27v3.38c-5.09 3.81-8 9.39-8 15.41s2.82 11.43 7.76 15.24l-1.66 3.32c-.15.31-.14.68.04.97s.5.47.85.47h30c.35 0 .67-.18.85-.47s.2-.66.04-.97l-1.66-3.32c4.94-3.81 7.76-9.31 7.76-15.24zM35 26H20v-2h24v2zm14.71-7.34c-1.99.6-4.35 1.65-5.35 3.34h-6.45c-.04-.25-.1-.5-.16-.75 2.14-2.02 6.12-4.42 11.95-2.59zM32 16.27c.99.84 2.95 2.71 3.7 4.98.08.25.14.5.19.74h-7.78c.05-.25.11-.49.19-.75.75-2.26 2.71-4.14 3.7-4.98zm-17.71 2.39c5.83-1.83 9.81.57 11.95 2.59-.06.25-.12.5-.16.75h-6.45c-.99-1.69-3.36-2.73-5.35-3.34zM18.62 60l1-2h24.76l1 2zm25.94-4H36v-1.35c0-.55-.45-1-1-1s-1 .45-1 1V56h-4v-1.35c0-.55-.45-1-1-1s-1 .45-1 1V56h-8.56C14.71 52.57 12 47.48 12 42s2.71-10.57 7.44-14H28v1.35c0 .55.45 1 1 1s1-.45 1-1V28h4v1.35c0 .55.45 1 1 1s1-.45 1-1V28h8.56C49.29 31.43 52 36.52 52 42s-2.71 10.57-7.44 14z" fill="#941e3c" opacity="1" data-original="#000000"></path><path d="M32 32c-5.51 0-10 4.49-10 10s4.49 10 10 10 10-4.49 10-10-4.49-10-10-10zm0 18c-4.41 0-8-3.59-8-8s3.59-8 8-8 8 3.59 8 8-3.59 8-8 8z" fill="#941e3c" opacity="1" data-original="#000000"></path><path d="M36 39c.55 0 1-.45 1-1s-.45-1-1-1h-4c-.55 0-1 .45-1 1v3h-2v-3c0-.55-.45-1-1-1s-1 .45-1 1v4c0 .55.45 1 1 1h3v2h-3c-.55 0-1 .45-1 1s.45 1 1 1h4c.55 0 1-.45 1-1v-3h2v3c0 .55.45 1 1 1s1-.45 1-1v-4c0-.55-.45-1-1-1h-3v-2zM47 39c-1.65 0-3 1.35-3 3s1.35 3 3 3 3-1.35 3-3-1.35-3-3-3zm0 4c-.55 0-1-.45-1-1s.45-1 1-1 1 .45 1 1-.45 1-1 1zM17 39c-1.65 0-3 1.35-3 3s1.35 3 3 3 3-1.35 3-3-1.35-3-3-3zm0 4c-.55 0-1-.45-1-1s.45-1 1-1 1 .45 1 1-.45 1-1 1zM22.92 14.71c.14.07.3.11.45.11.37 0 .72-.2.89-.55 2.46-4.88 6.25-8.59 7.74-9.94 1.49 1.35 5.28 5.06 7.73 9.94a.998.998 0 0 0 1.78-.9c-3.29-6.55-8.66-10.96-8.88-11.15-.37-.3-.9-.3-1.26 0-.23.18-5.59 4.6-8.89 11.14a.998.998 0 0 0 .44 1.34z" fill="#941e3c" opacity="1" data-original="#000000"></path></g></svg>