<svg xmlns="http://www.w3.org/2000/svg" xmlns:xlink="http://www.w3.org/1999/xlink" width="512" height="512" x="0" y="0" viewBox="0 0 682.667 682.667" style="enable-background:new 0 0 512 512" xml:space="preserve" class=""><g><defs><clipPath id="a" clipPathUnits="userSpaceOnUse"><path d="M0 512h512V0H0Z" fill="#941e3c" opacity="1" data-original="#000000"></path></clipPath></defs><g clip-path="url(#a)" transform="matrix(1.33333 0 0 -1.33333 0 682.667)"><path d="m0 0 .107-75.474-23.408-20.543C-11.393-103.183.107-115.683.107-115.683c-15 2.666-32.666-26-32.666-26 39-15.667 32.666-24 32.666-24v-94.763l-19.333-50.904 22.833-.917-7.233-49.786a198.293 198.293 0 0 1 6.13-84.912l1.103-3.718h-38.666l-90.167 4s-19.333 41.75-19.333 40.667c0-11.608-12.667-44.667-12.667-44.667h-182.667a198.298 198.298 0 0 0-5.209 64.866l1.709 20.134 38.507 13.989c-3.757 13.511-38.507 21.011-38.507 21.011v129.5s20.5 25.5 41.5 31.5l-41.5 17.5 3.031 52.197a459.204 459.204 0 0 1 .145 50.614l-3.176 60.689c0 16.568-13.431 30-30 30h129.5s30-11.75 37-26l16 26h91.5l10.5-13 18 13h41c5.523 0 10.684-3.033 15.109-7.076C-5.217 25.5-.019 12.959 0 0Z" style="stroke-width:20;stroke-linecap:round;stroke-linejoin:round;stroke-miterlimit:10;stroke-dasharray:555, 45, 0, 45, 1000, 0;stroke-dashoffset:0;stroke-opacity:1" transform="translate(440.893 460.683)" fill="none" stroke="#941e3c" stroke-width="20" stroke-linecap="round" stroke-linejoin="round" stroke-miterlimit="10" stroke-dasharray="555, 45, 0, 45, 1000, 0" stroke-dashoffset="0" stroke-opacity="" data-original="#000000" opacity="1"></path><path d="M0 0h172" style="stroke-width:20;stroke-linecap:round;stroke-linejoin:round;stroke-miterlimit:10;stroke-dasharray:none;stroke-opacity:1" transform="translate(188.718 432.334)" fill="none" stroke="#941e3c" stroke-width="20" stroke-linecap="round" stroke-linejoin="round" stroke-miterlimit="10" stroke-dasharray="none" stroke-opacity="" data-original="#000000" opacity="1"></path><path d="m0 0 14-19.667" style="stroke-width:20;stroke-linecap:round;stroke-linejoin:round;stroke-miterlimit:10;stroke-dasharray:none;stroke-opacity:1" transform="translate(269.718 452)" fill="none" stroke="#941e3c" stroke-width="20" stroke-linecap="round" stroke-linejoin="round" stroke-miterlimit="10" stroke-dasharray="none" stroke-opacity="" data-original="#000000" opacity="1"></path><path d="M0 0c-5.712-5.459-9.266-13.153-9.266-21.679 0-13.06 8.34-24.17 20-28.28 3.13-1.12 6.49-1.72 10-1.72 16.57 0 30 13.43 30 30" style="stroke-width:20;stroke-linecap:round;stroke-linejoin:round;stroke-miterlimit:10;stroke-dasharray:none;stroke-opacity:1" transform="translate(197.983 384.012)" fill="none" stroke="#941e3c" stroke-width="20" stroke-linecap="round" stroke-linejoin="round" stroke-miterlimit="10" stroke-dasharray="none" stroke-opacity="" data-original="#000000" opacity="1"></path><path d="M0 0v110" style="stroke-width:20;stroke-linecap:round;stroke-linejoin:round;stroke-miterlimit:10;stroke-dasharray:none;stroke-opacity:1" transform="translate(248.718 322.334)" fill="none" stroke="#941e3c" stroke-width="20" stroke-linecap="round" stroke-linejoin="round" stroke-miterlimit="10" stroke-dasharray="none" stroke-opacity="" data-original="#000000" opacity="1"></path><path d="M0 0c0-16.569-13.432-30-30-30-16.569 0-30 13.431-30 30 0 16.568 13.431 30 30 30H0" style="stroke-width:20;stroke-linecap:round;stroke-linejoin:round;stroke-miterlimit:10;stroke-dasharray:none;stroke-opacity:1" transform="translate(348.718 362.334)" fill="none" stroke="#941e3c" stroke-width="20" stroke-linecap="round" stroke-linejoin="round" stroke-miterlimit="10" stroke-dasharray="none" stroke-opacity="" data-original="#000000" opacity="1"></path><path d="M0 0v40" style="stroke-width:20;stroke-linecap:round;stroke-linejoin:round;stroke-miterlimit:10;stroke-dasharray:none;stroke-opacity:1" transform="translate(348.718 392.334)" fill="none" stroke="#941e3c" stroke-width="20" stroke-linecap="round" stroke-linejoin="round" stroke-miterlimit="10" stroke-dasharray="none" stroke-opacity="" data-original="#000000" opacity="1"></path><path d="m0 0 11.833-11.833" style="stroke-width:20;stroke-linecap:round;stroke-linejoin:round;stroke-miterlimit:10;stroke-dasharray:none;stroke-opacity:1" transform="translate(348.718 362.334)" fill="none" stroke="#941e3c" stroke-width="20" stroke-linecap="round" stroke-linejoin="round" stroke-miterlimit="10" stroke-dasharray="none" stroke-opacity="" data-original="#000000" opacity="1"></path><path d="M0 0h120" style="stroke-width:20;stroke-linecap:round;stroke-linejoin:round;stroke-miterlimit:10;stroke-dasharray:none;stroke-opacity:1" transform="translate(218.662 272.334)" fill="none" stroke="#941e3c" stroke-width="20" stroke-linecap="round" stroke-linejoin="round" stroke-miterlimit="10" stroke-dasharray="none" stroke-opacity="" data-original="#000000" opacity="1"></path><path d="M0 0h259.441" style="stroke-width:20;stroke-linecap:round;stroke-linejoin:round;stroke-miterlimit:10;stroke-dasharray:20, 45, 80, 45, 50, 0;stroke-dashoffset:0;stroke-opacity:1" transform="translate(142 222.333)" fill="none" stroke="#941e3c" stroke-width="20" stroke-linecap="round" stroke-linejoin="round" stroke-miterlimit="10" stroke-dasharray="20, 45, 80, 45, 50, 0" stroke-dashoffset="0" stroke-opacity="" data-original="#000000" opacity="1"></path><path d="M0 0h239.441" style="stroke-width:20;stroke-linecap:round;stroke-linejoin:round;stroke-miterlimit:10;stroke-dasharray:57, 45, 45, 45, 10, 0;stroke-dashoffset:0;stroke-opacity:1" transform="translate(142 182.333)" fill="none" stroke="#941e3c" stroke-width="20" stroke-linecap="round" stroke-linejoin="round" stroke-miterlimit="10" stroke-dasharray="57, 45, 45, 45, 10, 0" stroke-dashoffset="0" stroke-opacity="" data-original="#000000" opacity="1"></path><path d="M0 0h217.441" style="stroke-width:20;stroke-linecap:round;stroke-linejoin:round;stroke-miterlimit:10;stroke-dasharray:15, 45, 26, 45, 90, 0;stroke-dashoffset:0;stroke-opacity:1" transform="translate(162 142.333)" fill="none" stroke="#941e3c" stroke-width="20" stroke-linecap="round" stroke-linejoin="round" stroke-miterlimit="10" stroke-dasharray="15, 45, 26, 45, 90, 0" stroke-dashoffset="0" stroke-opacity="" data-original="#000000" opacity="1"></path><path d="M0 0h71" style="stroke-width:20;stroke-linecap:round;stroke-linejoin:round;stroke-miterlimit:10;stroke-dasharray:none;stroke-opacity:1" transform="translate(182 102.333)" fill="none" stroke="#941e3c" stroke-width="20" stroke-linecap="round" stroke-linejoin="round" stroke-miterlimit="10" stroke-dasharray="none" stroke-opacity="" data-original="#000000" opacity="1"></path><path d="M0 0h45.5" style="stroke-width:20;stroke-linecap:round;stroke-linejoin:round;stroke-miterlimit:10;stroke-dasharray:none;stroke-opacity:1" transform="translate(293 102.333)" fill="none" stroke="#941e3c" stroke-width="20" stroke-linecap="round" stroke-linejoin="round" stroke-miterlimit="10" stroke-dasharray="none" stroke-opacity="" data-original="#000000" opacity="1"></path></g></g></svg>