<svg xmlns="http://www.w3.org/2000/svg" xmlns:xlink="http://www.w3.org/1999/xlink" width="512" height="512" x="0" y="0" viewBox="0 0 682.667 682.667" style="enable-background:new 0 0 512 512" xml:space="preserve" class=""><g><defs><clipPath id="a" clipPathUnits="userSpaceOnUse"><path d="M0 512h512V0H0Z" fill="#941e3c" opacity="1" data-original="#000000"></path></clipPath></defs><g clip-path="url(#a)" transform="matrix(1.33333 0 0 -1.33333 0 682.667)"><path d="M0 0v214.28c0 44.18 35.81 80 80 80h136.62" style="stroke-width:15;stroke-linecap:round;stroke-linejoin:round;stroke-miterlimit:10;stroke-dasharray:none;stroke-opacity:1" transform="translate(69.63 210.22)" fill="none" stroke="#941e3c" stroke-width="15" stroke-linecap="round" stroke-linejoin="round" stroke-miterlimit="10" stroke-dasharray="none" stroke-opacity="" data-original="#000000" opacity="1"></path><path d="M0 0h107.9c8.58 0 15.53-6.96 15.53-15.53v-341.69c0-8.58-6.95-15.53-15.53-15.53h-279.56c-12.86 0-24.51-5.21-32.94-13.65-8.44-8.43-13.65-20.08-13.65-32.94 0-25.74 20.86-46.6 46.59-46.6H107.9c4.29 0 8.17-1.74 10.98-4.55 2.81-2.81 4.55-6.69 4.55-10.98 0-8.57-6.95-15.53-15.53-15.53h-277.21c-44.19 0-80 35.82-80 80v90.03" style="stroke-width:15;stroke-linecap:round;stroke-linejoin:round;stroke-miterlimit:10;stroke-dasharray:none;stroke-opacity:1" transform="translate(318.94 504.5)" fill="none" stroke="#941e3c" stroke-width="15" stroke-linecap="round" stroke-linejoin="round" stroke-miterlimit="10" stroke-dasharray="none" stroke-opacity="" data-original="#000000" opacity="1"></path><path d="M0 0c-20.781-31.281-20.635-62.342 0-93.187" style="stroke-width:15;stroke-linecap:round;stroke-linejoin:round;stroke-miterlimit:10;stroke-dasharray:none;stroke-opacity:1" transform="translate(426.842 131.751)" fill="none" stroke="#941e3c" stroke-width="15" stroke-linecap="round" stroke-linejoin="round" stroke-miterlimit="10" stroke-dasharray="none" stroke-opacity="" data-original="#000000" opacity="1"></path><path d="M0 0v-372.747" style="stroke-width:15;stroke-linecap:round;stroke-linejoin:round;stroke-miterlimit:10;stroke-dasharray:none;stroke-opacity:1" transform="translate(147.282 504.498)" fill="none" stroke="#941e3c" stroke-width="15" stroke-linecap="round" stroke-linejoin="round" stroke-miterlimit="10" stroke-dasharray="none" stroke-opacity="" data-original="#000000" opacity="1"></path><path d="M0 0h263.441" style="stroke-width:15;stroke-linecap:round;stroke-linejoin:round;stroke-miterlimit:10;stroke-dasharray:none;stroke-opacity:1" transform="translate(149.626 100.689)" fill="none" stroke="#941e3c" stroke-width="15" stroke-linecap="round" stroke-linejoin="round" stroke-miterlimit="10" stroke-dasharray="none" stroke-opacity="" data-original="#000000" opacity="1"></path><path d="M0 0h263.441" style="stroke-width:15;stroke-linecap:round;stroke-linejoin:round;stroke-miterlimit:10;stroke-dasharray:none;stroke-opacity:1" transform="translate(149.626 69.626)" fill="none" stroke="#941e3c" stroke-width="15" stroke-linecap="round" stroke-linejoin="round" stroke-miterlimit="10" stroke-dasharray="none" stroke-opacity="" data-original="#000000" opacity="1"></path><path d="M0 0c0 17.155 13.907 31.062 31.062 31.062S62.124 17.155 62.124 0 48.217-31.062 31.062-31.062h7.766c21.443 0 38.827-17.384 38.827-38.828 0-21.444-17.384-38.828-38.827-38.828C17.384-108.718 0-91.334 0-69.89a7.766 7.766 0 0 1-7.766 7.765h-7.765" style="stroke-width:15;stroke-linecap:round;stroke-linejoin:round;stroke-miterlimit:10;stroke-dasharray:none;stroke-opacity:1" transform="translate(224.938 333.656)" fill="none" stroke="#941e3c" stroke-width="15" stroke-linecap="round" stroke-linejoin="round" stroke-miterlimit="10" stroke-dasharray="none" stroke-opacity="" data-original="#000000" opacity="1"></path><path d="M0 0h16.863a53.028 53.028 0 0 1 37.496 15.531 53.023 53.023 0 0 0 37.495 15.531h1.333c12.866 0 23.296-10.43 23.296-23.296v-62.125c0-12.866-10.43-23.296-23.296-23.296-12.867 0-23.297 10.43-23.297 23.296" style="stroke-width:15;stroke-linecap:round;stroke-linejoin:round;stroke-miterlimit:10;stroke-dasharray:none;stroke-opacity:1" transform="translate(263.766 302.593)" fill="none" stroke="#941e3c" stroke-width="15" stroke-linecap="round" stroke-linejoin="round" stroke-miterlimit="10" stroke-dasharray="none" stroke-opacity="" data-original="#000000" opacity="1"></path><path d="M0 0v0c17.155-17.155 44.969-17.155 62.125 0" style="stroke-width:15;stroke-linecap:round;stroke-linejoin:round;stroke-miterlimit:10;stroke-dasharray:none;stroke-opacity:1" transform="translate(302.593 380.249)" fill="none" stroke="#941e3c" stroke-width="15" stroke-linecap="round" stroke-linejoin="round" stroke-miterlimit="10" stroke-dasharray="none" stroke-opacity="" data-original="#000000" opacity="1"></path><path d="M0 0a7.5 7.5 0 0 0-7.5 7.5A7.5 7.5 0 0 0 0 15 7.5 7.5 0 0 0 0 0" style="fill-opacity:1;fill-rule:nonzero;stroke:none" transform="translate(333.656 396.311)" fill="#941e3c" data-original="#000000" opacity="1"></path><path d="M0 0v-45.78h-232.97v310.63H0V32.69" style="stroke-width:15;stroke-linecap:round;stroke-linejoin:round;stroke-miterlimit:10;stroke-dasharray:none;stroke-opacity:1" transform="translate(411.31 208.59)" fill="none" stroke="#941e3c" stroke-width="15" stroke-linecap="round" stroke-linejoin="round" stroke-miterlimit="10" stroke-dasharray="none" stroke-opacity="" data-original="#000000" opacity="1"></path></g></g></svg>